# Blender v2.74 (sub 0) OBJ File: ''
# www.blender.org
mtllib arrow-box.mtl
o Merged_Meshes
v -0.702428 -0.703159 0.050000
v -0.702428 -0.703159 -0.115510
v 0.004313 -0.702793 -0.115510
v 0.004313 -0.702793 0.050000
v -0.702793 0.004313 -0.115510
v -0.702793 0.004313 0.050000
v -0.176777 -0.530330 0.050000
v -0.176777 -0.530330 -0.115510
v -0.530330 -0.176777 0.050000
v -0.530330 -0.176777 -0.115510
v 1.871397 -0.174910 -0.115510
v 1.871397 -0.174910 0.050000
v -0.166738 0.470688 -0.115510
v -0.166738 0.470688 0.050000
v 0.183130 -0.172498 0.050000
v 0.183130 -0.172498 -0.115510
v -0.170323 0.182696 -0.115510
v -0.170323 0.182696 0.050000
v 1.871403 0.470673 -0.115510
v 1.871403 0.470673 0.050000
v 1.800691 0.399963 0.050000
v 1.800737 -0.104149 0.050000
v -0.087330 0.399538 0.050000
v -0.087328 0.143819 0.050000
v 0.145062 -0.080028 0.050000
v -0.430330 -0.176814 0.050000
v -0.176632 -0.430330 0.050000
v 1.800737 -0.104149 -0.050000
v 1.800691 0.399963 -0.050000
v -0.087330 0.399538 -0.050000
v -0.087328 0.143819 -0.050000
v 0.145062 -0.080028 -0.050000
v -0.430330 -0.176814 -0.050000
v -0.176632 -0.430330 -0.050000
vn 0.707100 0.707100 0.000000
vn 0.000500 -1.000000 0.000000
vn -1.000000 -0.000500 0.000000
vn 0.000000 0.000000 1.000000
vn 0.000000 0.000000 -1.000000
vn -0.707100 -0.707100 0.000000
vn 1.000000 -0.000000 -0.000000
vn -0.001400 -1.000000 0.000000
vn -0.999900 0.012400 0.000000
vn 0.705100 -0.709100 0.000000
vn -0.706600 0.707600 0.000000
vn 0.000000 1.000000 0.000000
vn -1.000000 -0.000100 0.000000
vn 0.000200 -1.000000 0.000000
vn 0.014600 0.999900 0.000000
vn 0.682900 -0.730500 0.000000
vn 0.706900 0.707400 0.000000
vn -0.736500 0.676400 0.000000
usemtl Merged_MeshesDefault
s 1
f 5//1 6//1 4//1
f 3//1 5//1 4//1
f 4//2 1//2 2//2
f 3//2 4//2 2//2
f 5//3 2//3 1//3
f 6//3 5//3 1//3
f 4//4 6//4 1//4
f 2//5 5//5 3//5
f 9//6 10//6 8//6
f 7//6 9//6 8//6
f 19//7 20//7 12//7
f 11//7 19//7 12//7
f 12//8 15//8 16//8
f 11//8 12//8 16//8
f 13//9 17//9 18//9
f 14//9 13//9 18//9
f 30//4 31//4 32//4
f 29//4 30//4 32//4
f 28//4 29//4 32//4
f 10//5 17//5 16//5
f 8//5 10//5 16//5
f 7//10 8//10 16//10
f 15//10 7//10 16//10
f 10//11 9//11 18//11
f 17//11 10//11 18//11
f 33//4 34//4 32//4
f 31//4 33//4 32//4
f 19//5 11//5 16//5
f 13//5 19//5 16//5
f 17//5 13//5 16//5
f 13//12 14//12 20//12
f 19//12 13//12 20//12
f 20//4 21//4 22//4
f 12//4 20//4 22//4
f 14//4 23//4 21//4
f 20//4 14//4 21//4
f 18//4 24//4 23//4
f 14//4 18//4 23//4
f 12//4 22//4 25//4
f 15//4 12//4 25//4
f 9//4 26//4 24//4
f 18//4 9//4 24//4
f 7//4 27//4 26//4
f 9//4 7//4 26//4
f 15//4 25//4 27//4
f 7//4 15//4 27//4
f 21//13 29//13 28//13
f 22//13 21//13 28//13
f 23//14 30//14 29//14
f 21//14 23//14 29//14
f 24//7 31//7 30//7
f 23//7 24//7 30//7
f 22//15 28//15 32//15
f 25//15 22//15 32//15
f 26//16 33//16 31//16
f 24//16 26//16 31//16
f 27//17 34//17 33//17
f 26//17 27//17 33//17
f 25//18 32//18 34//18
f 27//18 25//18 34//18
